<?xml version="1.0" encoding="utf-8"?>
<!-- Generator: Adobe Illustrator 22.1.0, SVG Export Plug-In . SVG Version: 6.00 Build 0)  -->
<svg version="1.1" id="Layer_1" xmlns="http://www.w3.org/2000/svg" xmlns:xlink="http://www.w3.org/1999/xlink" x="0px" y="0px"
	 viewBox="0 0 50 50" style="enable-background:new 0 0 50 50;" xml:space="preserve">
<style type="text/css">
	.st0{fill-rule:evenodd;clip-rule:evenodd;fill:#FFFFFF;}
	.st1{fill:none;stroke:#FFFFFF;stroke-miterlimit:10;}
	.st2{fill:#FFFFFF;}
</style>
<g>
	<g>
		<g>
			<path class="st1" d="M5.5,25C5.5,14.3,14.3,5.5,25,5.5c10.7,0,19.5,8.7,19.5,19.5c0,10.7-8.7,19.5-19.5,19.5
				C14.3,44.5,5.5,35.7,5.5,25z"/>
		</g>
	</g>
	<path class="st0" d="M28.3,17c0.7,0,1.5,0,2.2,0c0.1,0,0.2,0,0.3,0v-3.9c-0.4,0-0.8-0.1-1.2-0.1c-0.8,0-1.5-0.1-2.3-0.1
		c-1.2,0-2.3,0.3-3.3,1c-1.1,0.8-1.7,1.9-2,3.3C22,17.8,22,18.3,22,18.9c0,0.9,0,1.8,0,2.6v0.3h-3.7v4.4H22v10.9h4.5V26.2h3.7
		c0.2-1.4,0.4-2.9,0.6-4.4c-0.3,0-0.6,0-0.8,0c-1.1,0-3.5,0-3.5,0s0-2.2,0-3.1C26.5,17.5,27.3,17.1,28.3,17z"/>
</g>
</svg>
