<?xml version="1.0" encoding="utf-8"?>
<!-- Generator: Adobe Illustrator 22.1.0, SVG Export Plug-In . SVG Version: 6.00 Build 0)  -->
<svg version="1.1" id="Layer_1" xmlns="http://www.w3.org/2000/svg" xmlns:xlink="http://www.w3.org/1999/xlink" x="0px" y="0px"
	 viewBox="0 0 25 25" style="enable-background:new 0 0 25 25;" xml:space="preserve">
<style type="text/css">
	.st0{fill-rule:evenodd;clip-rule:evenodd;fill:#FFFFFF;}
</style>
<path class="st0" d="M18.9,23.9C14.1,23.8,6.6,20,1.4,11c-1.8-3.2-1.6-6.8,1.1-9.3C3.4,0.8,4.6,1,5.6,1.2c0.3,0,0.5,0.4,0.7,0.7
	c0.7,1.6,1.4,3.1,2,4.7C8.6,7.6,8,8.3,6.8,9.8c-0.4,0.4-0.5,0.9-0.2,1.4c2,3.4,4.8,5.8,8.4,7.2c0.5,0.2,0.9,0.1,1.3-0.3
	c1.9-2.4,2.1-3.1,3.2-2.6c4.9,2.4,5.3,2.4,5.3,3C25,22.6,21.2,24.1,18.9,23.9z"/>
</svg>
