<?xml version="1.0" encoding="utf-8"?>
<!-- Generator: Adobe Illustrator 22.1.0, SVG Export Plug-In . SVG Version: 6.00 Build 0)  -->
<svg version="1.1" id="Layer_1" xmlns="http://www.w3.org/2000/svg" xmlns:xlink="http://www.w3.org/1999/xlink" x="0px" y="0px"
	 viewBox="0 0 50 50" style="enable-background:new 0 0 50 50;" xml:space="preserve">
<style type="text/css">
	.st0{fill-rule:evenodd;clip-rule:evenodd;fill:#FFFFFF;}
	.st1{fill:none;stroke:#FFFFFF;stroke-miterlimit:10;}
	.st2{fill:#FFFFFF;}
</style>
<g>
	<g>
		<g>
			<path class="st1" d="M5.5,25C5.5,14.3,14.3,5.5,25,5.5c10.7,0,19.5,8.7,19.5,19.5c0,10.7-8.7,19.5-19.5,19.5
				C14.3,44.5,5.5,35.7,5.5,25z"/>
		</g>
	</g>
	<g>
		<path class="st2" d="M16.6,21.4h4v13h-4V21.4z M18.6,15c1.3,0,2.3,1,2.3,2.3c0,1.3-1,2.3-2.3,2.3c-1.3,0-2.3-1-2.3-2.3
			C16.3,16,17.3,15,18.6,15"/>
		<path class="st2" d="M23.2,21.4H27v1.8h0.1c0.5-1,1.9-2.1,3.8-2.1c4.1,0,4.8,2.7,4.8,6.2v7.1h-4v-6.3c0-1.5,0-3.4-2.1-3.4
			c-2.1,0-2.4,1.6-2.4,3.3v6.4h-4V21.4z"/>
	</g>
</g>
</svg>
