<svg id="Layer_1" data-name="Layer 1" xmlns="http://www.w3.org/2000/svg" viewBox="0 0 300 200"><defs><style>.cls-1{fill:#fff;}.cls-2{fill:#1b3a4f;}</style></defs><title>v2Artboard 5 copy 3</title><path class="cls-1" d="M41.46,87.06V66.58h6.8a10.48,10.48,0,0,1,4.26.81,8.64,8.64,0,0,1,3,2.19,9.33,9.33,0,0,1,1.82,3.25,12.82,12.82,0,0,1,.6,4A12.51,12.51,0,0,1,57.3,81a9.2,9.2,0,0,1-1.94,3.23,8.79,8.79,0,0,1-3.07,2.08,10.63,10.63,0,0,1-4,.73Zm15-10.27A11,11,0,0,0,56,73.23a8,8,0,0,0-1.6-2.81,7.34,7.34,0,0,0-2.58-1.85,8.81,8.81,0,0,0-3.52-.66H42.93V85.73h5.33a8.8,8.8,0,0,0,3.56-.67,7.14,7.14,0,0,0,2.58-1.89A8.3,8.3,0,0,0,56,80.33,11.52,11.52,0,0,0,56.51,76.79Z"/><path class="cls-1" d="M62,87.06V66.58h1.47V87.06Z"/><path class="cls-1" d="M68.85,87.06V66.58h8.51a5.36,5.36,0,0,1,2.4.55,6.15,6.15,0,0,1,1.89,1.46,7.11,7.11,0,0,1,1.24,2,6.38,6.38,0,0,1,.44,2.29A7,7,0,0,1,83,75.11,6.52,6.52,0,0,1,82,77a5.75,5.75,0,0,1-1.53,1.38,5.21,5.21,0,0,1-2,.72l5.1,8h-1.7l-5-7.73H70.33v7.73ZM70.33,78h7.18a3.74,3.74,0,0,0,1.79-.44,4.43,4.43,0,0,0,1.38-1.14,5.13,5.13,0,0,0,.88-1.61,5.93,5.93,0,0,0,.3-1.86A5,5,0,0,0,81.5,71a5.3,5.3,0,0,0-1-1.6,4.87,4.87,0,0,0-1.44-1.11,3.85,3.85,0,0,0-1.77-.42h-7Z"/><path class="cls-1" d="M101.21,85.73v1.33H87.57V66.58H101v1.33H89v8H99.46v1.27H89v8.5Z"/><path class="cls-1" d="M103.38,76.68A10.78,10.78,0,0,1,104,73a10.07,10.07,0,0,1,1.89-3.27,9.61,9.61,0,0,1,3-2.35,8.94,8.94,0,0,1,4.11-.91,8.46,8.46,0,0,1,4.67,1.25,7.87,7.87,0,0,1,2.88,3.22l-1.21.69a6.64,6.64,0,0,0-2.87-3,7.08,7.08,0,0,0-1.77-.64,8.2,8.2,0,0,0-1.82-.21,7.3,7.3,0,0,0-3.46.8A8.23,8.23,0,0,0,107,70.68a9.1,9.1,0,0,0-1.57,2.87,10.28,10.28,0,0,0-.53,3.21,9.62,9.62,0,0,0,.63,3.47,9.74,9.74,0,0,0,1.73,2.89,8.37,8.37,0,0,0,2.6,2,7.13,7.13,0,0,0,3.23.75,8.5,8.5,0,0,0,1.9-.23,7.34,7.34,0,0,0,3.55-2,6.8,6.8,0,0,0,1.3-1.8l1.27.61a6.87,6.87,0,0,1-1.42,2,8.53,8.53,0,0,1-2,1.5,9.11,9.11,0,0,1-2.32.91,10.13,10.13,0,0,1-2.41.3,8.08,8.08,0,0,1-3.85-.92,10.2,10.2,0,0,1-3-2.41,11.26,11.26,0,0,1-2-3.37A10.92,10.92,0,0,1,103.38,76.68Z"/><path class="cls-1" d="M138.79,67.91H131.3V87.06h-1.47V67.91h-7.5V66.58h16.46Z"/><path class="cls-1" d="M142,87.06V66.58h1.47V87.06Z"/><path class="cls-1" d="M157,87.21a8.41,8.41,0,0,1-3.89-.9A10.06,10.06,0,0,1,150,84a10.64,10.64,0,0,1-2-3.32,11,11,0,0,1-.69-3.84,10.65,10.65,0,0,1,.73-3.92,11.07,11.07,0,0,1,2-3.32,9.71,9.71,0,0,1,3.05-2.29,8.57,8.57,0,0,1,3.8-.85,8.37,8.37,0,0,1,3.91.91,9.82,9.82,0,0,1,3,2.38,10.89,10.89,0,0,1,1.95,3.33,10.88,10.88,0,0,1-2.07,11,9.62,9.62,0,0,1-3,2.27A8.59,8.59,0,0,1,157,87.21Zm-8.1-10.39a9.91,9.91,0,0,0,.59,3.39,9.31,9.31,0,0,0,1.67,2.89,8.45,8.45,0,0,0,2.59,2,7.22,7.22,0,0,0,3.28.75,7.05,7.05,0,0,0,3.33-.78A8.2,8.2,0,0,0,162.86,83a9.76,9.76,0,0,0,1.6-9.58,9.4,9.4,0,0,0-1.68-2.88,8.48,8.48,0,0,0-2.56-2,7.52,7.52,0,0,0-6.57,0,8.21,8.21,0,0,0-2.57,2.07,9.38,9.38,0,0,0-1.64,2.89A9.63,9.63,0,0,0,148.86,76.82Z"/><path class="cls-1" d="M172,69.35V87.06h-1.47V66.58h1.12l14.37,18v-18h1.47V87.06h-1.36Z"/><path class="cls-1" d="M204.73,70a7.18,7.18,0,0,0-5.63-2.22,6.81,6.81,0,0,0-4.37,1.14A3.79,3.79,0,0,0,193.36,72a3.48,3.48,0,0,0,.35,1.63,3,3,0,0,0,1.08,1.11,7.76,7.76,0,0,0,1.86.78c.75.21,1.65.43,2.71.66s2.09.48,3,.76A8.39,8.39,0,0,1,204.62,78a4.46,4.46,0,0,1,1.45,1.55,4.8,4.8,0,0,1,.5,2.28,5.08,5.08,0,0,1-.53,2.37,4.82,4.82,0,0,1-1.5,1.68,7,7,0,0,1-2.31,1,12,12,0,0,1-3,.34,11.5,11.5,0,0,1-8.11-3l.78-1.19a9.36,9.36,0,0,0,3.17,2.15,10.71,10.71,0,0,0,4.21.8,7.72,7.72,0,0,0,4.2-1A3.31,3.31,0,0,0,205,82a3.38,3.38,0,0,0-.4-1.71,3.69,3.69,0,0,0-1.2-1.23,8.14,8.14,0,0,0-2-.89c-.81-.25-1.75-.49-2.83-.72s-2.06-.48-2.9-.74a7.58,7.58,0,0,1-2.1-1,3.9,3.9,0,0,1-1.29-1.43,4.64,4.64,0,0,1-.43-2.1,5.35,5.35,0,0,1,.54-2.45,5.28,5.28,0,0,1,1.48-1.81,6.64,6.64,0,0,1,2.28-1.11,10.75,10.75,0,0,1,2.94-.37,10,10,0,0,1,3.55.59,8.61,8.61,0,0,1,2.83,1.8Z"/><path class="cls-1" d="M231.17,67.91h-7.5V87.06H222.2V67.91h-7.5V66.58h16.47Z"/><path class="cls-1" d="M241.56,87.21a8.42,8.42,0,0,1-3.9-.9,10.06,10.06,0,0,1-3-2.33,10.64,10.64,0,0,1-2-3.32,11,11,0,0,1-.69-3.84,10.66,10.66,0,0,1,.74-3.92,11,11,0,0,1,2-3.32,9.71,9.71,0,0,1,3.05-2.29,8.57,8.57,0,0,1,3.8-.85,8.37,8.37,0,0,1,3.91.91,9.7,9.7,0,0,1,3,2.38,10.89,10.89,0,0,1,1.95,3.33,10.72,10.72,0,0,1,.69,3.76,10.5,10.5,0,0,1-.74,4,11,11,0,0,1-2,3.31,9.66,9.66,0,0,1-3,2.27A8.57,8.57,0,0,1,241.56,87.21Zm-8.11-10.39a9.91,9.91,0,0,0,.59,3.39,9.14,9.14,0,0,0,1.68,2.89,8.3,8.3,0,0,0,2.58,2,7.22,7.22,0,0,0,3.28.75,7.09,7.09,0,0,0,3.34-.78A8.16,8.16,0,0,0,247.45,83a9.4,9.4,0,0,0,1.63-2.9,9.67,9.67,0,0,0,0-6.68,9.4,9.4,0,0,0-1.68-2.88,8.36,8.36,0,0,0-2.56-2,7.52,7.52,0,0,0-6.57,0,8.21,8.21,0,0,0-2.57,2.07A9.38,9.38,0,0,0,234,73.53,9.63,9.63,0,0,0,233.45,76.82Z"/><path class="cls-1" d="M84.78,98v51.19H74.9V127.29H51.68v21.85h-10V98h10v20.69H74.9V98Z"/><path class="cls-1" d="M117.29,149.5a23.22,23.22,0,0,1-10.2-2.2,25.14,25.14,0,0,1-7.86-5.84,27.09,27.09,0,0,1-6.88-17.92,25.58,25.58,0,0,1,1.91-9.8,27.13,27.13,0,0,1,5.26-8.3,25.21,25.21,0,0,1,8-5.73,23.75,23.75,0,0,1,10-2.12,22.4,22.4,0,0,1,10.13,2.27,25.09,25.09,0,0,1,7.82,6,27.12,27.12,0,0,1,5,8.36,26.35,26.35,0,0,1,1.8,9.52,25.93,25.93,0,0,1-1.87,9.77,26.56,26.56,0,0,1-5.19,8.22,25.18,25.18,0,0,1-7.93,5.69A23.65,23.65,0,0,1,117.29,149.5Zm-14.85-26a20.72,20.72,0,0,0,1,6.42,17.15,17.15,0,0,0,2.92,5.48,14.66,14.66,0,0,0,4.69,3.82,13.49,13.49,0,0,0,6.31,1.44,13.32,13.32,0,0,0,6.38-1.48,14.34,14.34,0,0,0,4.68-3.93,17.38,17.38,0,0,0,2.89-5.51,20.43,20.43,0,0,0,1-6.24,20.17,20.17,0,0,0-1-6.42,18,18,0,0,0-3-5.48,14.19,14.19,0,0,0-4.69-3.78,14.57,14.57,0,0,0-12.65.07,14.37,14.37,0,0,0-4.69,3.9,17.2,17.2,0,0,0-2.84,5.48A20.43,20.43,0,0,0,102.44,123.54Z"/><path class="cls-1" d="M191.7,149.14V115.25l-13.19,25.23H173.1l-13.19-25.23v33.89H150V98h10.67l15.14,29.12L191.05,98h10.6v51.19Z"/><path class="cls-1" d="M247.87,140.41v8.73H212.32V98h34.9v8.72H222.27V119h21.56v8.07H222.27v13.34Z"/><polygon class="cls-2" points="34.67 155.85 34.67 150.16 24.23 160.5 34.67 170.91 34.67 164.88 223.17 164.88 223.17 155.75 34.67 155.85"/><polygon class="cls-2" points="34.32 145.87 34.32 140.51 14.21 160.54 34.32 180.63 34.32 175.28 19.55 160.57 34.32 145.87"/><polygon class="cls-2" points="257.31 49.02 257.31 43.33 267.74 53.67 257.31 64.09 257.31 58.05 68.81 58.05 68.81 48.92 257.31 49.02"/><polygon class="cls-2" points="257.65 39.05 257.65 33.69 277.77 53.71 257.65 73.8 257.65 68.46 272.43 53.74 257.65 39.05"/></svg>