<svg id="Layer_1" data-name="Layer 1" xmlns="http://www.w3.org/2000/svg" viewBox="0 0 300 300"><defs><style>.cls-1{font-size:22.64px;}.cls-1,.cls-5,.cls-6{fill:#fff;}.cls-1,.cls-5{font-family:Raleway-Thin, Raleway;}.cls-2{letter-spacing:-0.03em;}.cls-3{letter-spacing:0em;}.cls-4{letter-spacing:-0.01em;}.cls-5{font-size:41.82px;}</style></defs><title>v2Artboard 5 copy</title><text class="cls-1" transform="translate(86.14 223)">di<tspan class="cls-2" x="17.93" y="0">r</tspan><tspan class="cls-3" x="24.66" y="0">ections </tspan><tspan class="cls-4" x="103.45" y="0">t</tspan><tspan class="cls-3" x="109.83" y="0">o</tspan></text><text class="cls-5" transform="translate(84.24 263.57)">HOME</text><path class="cls-6" d="M204.49,80.84A57.75,57.75,0,1,0,91.83,98.77L103,79h38.24v25l9.3,8.52V65.74h8.52V79h7.56l26.31,37.54,4-7.14h0A57.52,57.52,0,0,0,204.49,80.84ZM180,139.54H142.52L106.35,86.17,95,106.48c.48,1,1,2,1.54,2.92l0,0a57.61,57.61,0,0,0,4.28,6.48l46.7,70.49a3.6,3.6,0,0,0,6.14-.23l8.1-14.33V147.46h6.53v12.75Zm-22.85,32.93h-6.55v-25h6.55Z"/><path class="cls-6" d="M180,139.54H142.52L106.35,86.17,95,106.48c.48,1,1,2,1.54,2.92l0,0a57.61,57.61,0,0,0,4.28,6.48l46.7,70.49a3.6,3.6,0,0,0,6.14-.23l8.1-14.33V147.46h6.53v12.75Zm-22.85,32.93h-6.55v-25h6.55Z"/><path class="cls-6" d="M196.93,109.4h0l-4,7.14L166.63,79h-7.56V65.74h-8.52v46.81l-9.3-8.52V79H103L91.83,98.77a57.76,57.76,0,1,1,105.1,10.63Z"/></svg>