<svg id="Layer_1" data-name="Layer 1" xmlns="http://www.w3.org/2000/svg" viewBox="0 0 300 200"><defs><style>.cls-1{font-size:28.84px;font-family:Raleway-Light, Raleway;}.cls-1,.cls-6{fill:#fff;}.cls-2{letter-spacing:-0.01em;}.cls-3{letter-spacing:-0.01em;}.cls-4{letter-spacing:-0.03em;}.cls-5{letter-spacing:-0.03em;}.cls-6{font-size:72.1px;font-family:Raleway-Bold, Raleway;font-weight:700;}.cls-7{fill:#1b3a4f;}</style></defs><title>v2Artboard 5 copy 3</title><text class="cls-1" transform="translate(38.77 87.06)">DIR<tspan class="cls-2" x="46.12" y="0">E</tspan><tspan class="cls-3" x="63.34" y="0">C</tspan><tspan x="83.03" y="0">TIONS</tspan><tspan class="cls-4" x="168.81" y="0"> </tspan><tspan class="cls-5" x="175.41" y="0">T</tspan><tspan x="191.94" y="0">O</tspan></text><text class="cls-6" transform="translate(36.4 149.14)">HOME</text><polygon class="cls-7" points="34.67 155.85 34.67 150.16 24.23 160.5 34.67 170.91 34.67 164.88 223.17 164.88 223.17 155.75 34.67 155.85"/><polygon class="cls-7" points="34.32 145.87 34.32 140.51 14.21 160.54 34.32 180.63 34.32 175.28 19.55 160.57 34.32 145.87"/><polygon class="cls-7" points="257.31 49.02 257.31 43.33 267.74 53.67 257.31 64.09 257.31 58.05 68.81 58.05 68.81 48.92 257.31 49.02"/><polygon class="cls-7" points="257.65 39.05 257.65 33.69 277.77 53.71 257.65 73.8 257.65 68.46 272.43 53.74 257.65 39.05"/></svg>