<svg id="Layer_1" data-name="Layer 1" xmlns="http://www.w3.org/2000/svg" viewBox="0 0 300 200"><defs><style>.cls-1{fill:#fff;}</style></defs><title>v2Artboard 5 copy 2</title><path class="cls-1" d="M43,73.13a9.83,9.83,0,0,1-4.48-1A11.51,11.51,0,0,1,35,69.37a12.52,12.52,0,0,1-2.33-3.85,12,12,0,0,1-.83-4.4,13.27,13.27,0,0,1,.8-4.59,12.26,12.26,0,0,1,2.27-3.83,11,11,0,0,1,3.42-2.64,9.48,9.48,0,0,1,4.31-1,9.6,9.6,0,0,1,3,.47,10.93,10.93,0,0,1,2.62,1.26,11.26,11.26,0,0,1,2.18,1.83,14.72,14.72,0,0,1,1.68,2.22V40H53V70.89q0,.9.72.9v.89a1.4,1.4,0,0,1-.58-.08,1.69,1.69,0,0,1-.77-.7,2.08,2.08,0,0,1-.26-1v-3A12.37,12.37,0,0,1,50.35,70a12.21,12.21,0,0,1-2.2,1.68,10.22,10.22,0,0,1-2.49,1.1A9.06,9.06,0,0,1,43,73.13Zm0-.89a8.33,8.33,0,0,0,2.91-.59,11.92,11.92,0,0,0,2.91-1.54,9.55,9.55,0,0,0,2.27-2.26,5.29,5.29,0,0,0,1-2.74V56.73a8.56,8.56,0,0,0-1.53-2.62A12.17,12.17,0,0,0,48.26,52a11.72,11.72,0,0,0-2.78-1.46A8.28,8.28,0,0,0,42.62,50a8.61,8.61,0,0,0-4.1,1,10.35,10.35,0,0,0-3.12,2.53,11.24,11.24,0,0,0-2,3.59,12.23,12.23,0,0,0-.7,4.07,11,11,0,0,0,.81,4.19,11.92,11.92,0,0,0,2.2,3.54A10.47,10.47,0,0,0,39,71.32,9.09,9.09,0,0,0,43,72.24Z"/><path class="cls-1" d="M60.58,43.42V40h.9v3.45Zm0,29.26V49.43h.9V72.68Z"/><path class="cls-1" d="M79,50.32a9.2,9.2,0,0,0-5.72,2.16A10.54,10.54,0,0,0,69.9,58V72.68H69V49.43h.89v6a11.5,11.5,0,0,1,3.25-4,8.61,8.61,0,0,1,4.33-1.86l.83-.07.65,0Z"/><path class="cls-1" d="M91.82,73.13a10,10,0,0,1-4.33-1,11.24,11.24,0,0,1-3.56-2.64,12.94,12.94,0,0,1-2.42-3.9,12.86,12.86,0,0,1,0-9.35,11.83,11.83,0,0,1,2.35-3.76A10.89,10.89,0,0,1,87.31,50,10.52,10.52,0,0,1,96,50a11.29,11.29,0,0,1,3.54,2.55,12.59,12.59,0,0,1,2.4,3.81,12.34,12.34,0,0,1,.9,4.71v.49H81.51a12.66,12.66,0,0,0,1,4.19,11.66,11.66,0,0,0,2.27,3.38A10.31,10.31,0,0,0,88,71.41a9.17,9.17,0,0,0,3.83.83,9.58,9.58,0,0,0,2.62-.36,10.61,10.61,0,0,0,2.4-1,8.6,8.6,0,0,0,2-1.55,7.05,7.05,0,0,0,1.35-2l.85.23a7.54,7.54,0,0,1-1.41,2.21,9.41,9.41,0,0,1-2.15,1.75,11.59,11.59,0,0,1-2.69,1.17A10.73,10.73,0,0,1,91.82,73.13Zm10-12.45a12.36,12.36,0,0,0-1-4.31A11.27,11.27,0,0,0,98.65,53a10.16,10.16,0,0,0-3.16-2.22,9.69,9.69,0,0,0-7.71,0A10.29,10.29,0,0,0,84.62,53a10.87,10.87,0,0,0-2.17,3.41,13.12,13.12,0,0,0-.94,4.26Z"/><path class="cls-1" d="M106.43,60.94a12.67,12.67,0,0,1,.85-4.68A11.23,11.23,0,0,1,113.21,50a10.67,10.67,0,0,1,4.42-.92,10.14,10.14,0,0,1,5.26,1.37,8.67,8.67,0,0,1,3.48,3.83l-.9.31a8.62,8.62,0,0,0-3.29-3.38A9.2,9.2,0,0,0,117.49,50a9.37,9.37,0,0,0-4,.85,10.3,10.3,0,0,0-3.22,2.33,10.56,10.56,0,0,0-2.17,3.49,12.09,12.09,0,0,0,0,8.65,11.34,11.34,0,0,0,2.22,3.61,10.81,10.81,0,0,0,3.24,2.44,8.87,8.87,0,0,0,4,.9,9.53,9.53,0,0,0,2.71-.41,11.1,11.1,0,0,0,2.51-1.07,8.24,8.24,0,0,0,1.95-1.57,4.68,4.68,0,0,0,1.07-1.84l.9.27a6.61,6.61,0,0,1-1.28,2.17,8.63,8.63,0,0,1-2.08,1.75,11.09,11.09,0,0,1-2.67,1.17,10.67,10.67,0,0,1-3,.42,10.14,10.14,0,0,1-4.34-1,11.39,11.39,0,0,1-3.59-2.62,12.92,12.92,0,0,1-2.42-3.88A12.44,12.44,0,0,1,106.43,60.94Z"/><path class="cls-1" d="M141.29,71.61a7,7,0,0,1-1.23.67,13.11,13.11,0,0,1-1.33.43,6.78,6.78,0,0,1-1.7.2,4.31,4.31,0,0,1-2.82-1,3.16,3.16,0,0,1-1.21-2.6v-19h-3.36v-.89H133V41.32h.89v8.11h5.61v.89h-5.61v19a2.59,2.59,0,0,0,1,2A3.49,3.49,0,0,0,137,72a6.47,6.47,0,0,0,1.43-.15,10.08,10.08,0,0,0,1.19-.36,5.77,5.77,0,0,0,.81-.38,2.71,2.71,0,0,0,.33-.23Z"/><path class="cls-1" d="M145.46,43.42V40h.89v3.45Zm0,29.26V49.43h.89V72.68Z"/><path class="cls-1" d="M163.24,73.13a9.9,9.9,0,0,1-4.3-1,11.54,11.54,0,0,1-3.52-2.6,12.58,12.58,0,0,1,0-16.92A11.57,11.57,0,0,1,159,50a9.91,9.91,0,0,1,8.51,0A11.37,11.37,0,0,1,171,52.65a13.26,13.26,0,0,1,2.4,3.84,12.12,12.12,0,0,1,.89,4.63,12.52,12.52,0,0,1-3.25,8.45,11.38,11.38,0,0,1-3.51,2.6A9.91,9.91,0,0,1,163.24,73.13ZM153.07,61.21a11.29,11.29,0,0,0,.81,4.26A11.64,11.64,0,0,0,156.05,69a10.15,10.15,0,0,0,3.21,2.37,9.12,9.12,0,0,0,7.86,0,10.79,10.79,0,0,0,3.27-2.42,11.3,11.3,0,0,0,2.22-3.54,11.71,11.71,0,0,0,0-8.56,11.67,11.67,0,0,0-2.2-3.54,10.7,10.7,0,0,0-3.24-2.42,9.1,9.1,0,0,0-7.85,0,10.49,10.49,0,0,0-3.25,2.44,12.09,12.09,0,0,0-2.19,3.59A11.6,11.6,0,0,0,153.07,61.21Z"/><path class="cls-1" d="M198.2,72.68h-.9v-13q0-5.1-1.41-7.43A4.9,4.9,0,0,0,191.34,50a9.61,9.61,0,0,0-3.34.6,11.06,11.06,0,0,0-3,1.68,11.34,11.34,0,0,0-2.42,2.56A10.62,10.62,0,0,0,181,58V72.68h-.89V49.43H181v6a11.33,11.33,0,0,1,1.84-2.57,11.82,11.82,0,0,1,2.47-2,12.32,12.32,0,0,1,2.86-1.3,10.6,10.6,0,0,1,3.1-.47,5.78,5.78,0,0,1,5.24,2.58c1.1,1.71,1.66,4.41,1.66,8.08Z"/><path class="cls-1" d="M212.22,73.13a11.49,11.49,0,0,1-8.87-3.76l.67-.58a12.85,12.85,0,0,0,3.74,2.6,11.19,11.19,0,0,0,4.46.85,9.73,9.73,0,0,0,5.6-1.48A4.76,4.76,0,0,0,220,66.59a3.8,3.8,0,0,0-.53-2.08,4.68,4.68,0,0,0-1.57-1.44,11.25,11.25,0,0,0-2.56-1q-1.51-.42-3.45-.87c-1.25-.3-2.34-.58-3.27-.83a8.54,8.54,0,0,1-2.31-1,3.92,3.92,0,0,1-1.38-1.46,4.68,4.68,0,0,1-.48-2.26,6.1,6.1,0,0,1,.68-3,6,6,0,0,1,1.79-2,7.56,7.56,0,0,1,2.6-1.19,12.66,12.66,0,0,1,3.13-.38,11,11,0,0,1,4.82,1,5.94,5.94,0,0,1,2.76,2.4l-.81.36a5.24,5.24,0,0,0-2.78-2.11,12,12,0,0,0-4.16-.71,11.62,11.62,0,0,0-2.74.31,6.83,6.83,0,0,0-2.28,1A4.66,4.66,0,0,0,205.88,53a5.37,5.37,0,0,0-.56,2.53,4.24,4.24,0,0,0,.38,1.91,3.18,3.18,0,0,0,1.19,1.23,8.36,8.36,0,0,0,2.06.85c.84.24,1.82.49,3,.76,1.37.33,2.62.65,3.74.94a11.66,11.66,0,0,1,2.82,1.12A5.3,5.3,0,0,1,220.24,64a4.46,4.46,0,0,1,.63,2.49,6,6,0,0,1-.63,2.75,6.23,6.23,0,0,1-1.75,2.11,7.92,7.92,0,0,1-2.73,1.34A12.33,12.33,0,0,1,212.22,73.13Z"/><path class="cls-1" d="M247.31,71.61a6.69,6.69,0,0,1-1.24.67,12.1,12.1,0,0,1-1.32.43,6.84,6.84,0,0,1-1.7.2,4.3,4.3,0,0,1-2.82-1,3.16,3.16,0,0,1-1.21-2.6v-19h-3.36v-.89H239V41.32h.89v8.11h5.6v.89h-5.6v19a2.59,2.59,0,0,0,1,2,3.49,3.49,0,0,0,2.11.69,6.47,6.47,0,0,0,1.43-.15,10.08,10.08,0,0,0,1.19-.36,6.38,6.38,0,0,0,.81-.38,2.71,2.71,0,0,0,.33-.23Z"/><path class="cls-1" d="M260.26,73.13a9.84,9.84,0,0,1-4.3-1,11.31,11.31,0,0,1-3.52-2.6,12.57,12.57,0,0,1-2.38-3.83,12.73,12.73,0,0,1,0-9.25,12.84,12.84,0,0,1,2.4-3.84A11.81,11.81,0,0,1,256,50a9.93,9.93,0,0,1,8.52,0A11.44,11.44,0,0,1,268,52.65a13.26,13.26,0,0,1,2.4,3.84,11.94,11.94,0,0,1,.9,4.63,12.21,12.21,0,0,1-.88,4.62,12.35,12.35,0,0,1-2.37,3.83,11.42,11.42,0,0,1-3.52,2.6A9.87,9.87,0,0,1,260.26,73.13ZM250.09,61.21a11.55,11.55,0,0,0,3,7.78,10.11,10.11,0,0,0,3.2,2.37,9.12,9.12,0,0,0,7.86,0,11,11,0,0,0,3.28-2.42,11.1,11.1,0,0,0,2.21-3.54,11.71,11.71,0,0,0,0-8.56,11.64,11.64,0,0,0-2.19-3.54,10.74,10.74,0,0,0-3.25-2.42,9.08,9.08,0,0,0-7.84,0,10.37,10.37,0,0,0-3.25,2.44,11.92,11.92,0,0,0-2.2,3.59A11.79,11.79,0,0,0,250.09,61.21Z"/><path class="cls-1" d="M77.71,88.82v60.59H73.36v-29H35.13v29H30.77V88.82h4.36v27.65H73.36V88.82Z"/><path class="cls-1" d="M117.65,149.84a25.1,25.1,0,0,1-11.52-2.64,29.78,29.78,0,0,1-9-6.92,30.77,30.77,0,0,1-5.8-9.81,32.43,32.43,0,0,1-2.05-11.35,31.34,31.34,0,0,1,2.18-11.61,32.52,32.52,0,0,1,6-9.82,28.64,28.64,0,0,1,9-6.78,25.53,25.53,0,0,1,11.27-2.52,25,25,0,0,1,11.56,2.69,29.12,29.12,0,0,1,9,7A32.73,32.73,0,0,1,144,108a32.07,32.07,0,0,1-6.11,32.6,28.68,28.68,0,0,1-9,6.74A25.53,25.53,0,0,1,117.65,149.84Zm-24-30.72a29,29,0,0,0,1.75,10,27.25,27.25,0,0,0,5,8.54,24.51,24.51,0,0,0,7.64,5.93,21.44,21.44,0,0,0,9.73,2.22,21,21,0,0,0,9.86-2.3,24.06,24.06,0,0,0,7.51-6.11,29.27,29.27,0,0,0,6.53-18.3,28.44,28.44,0,0,0-1.8-10,27.54,27.54,0,0,0-5-8.54,24.73,24.73,0,0,0-7.55-5.93,20.73,20.73,0,0,0-9.56-2.22,21.12,21.12,0,0,0-9.9,2.31,24.38,24.38,0,0,0-7.6,6.1,28.14,28.14,0,0,0-4.86,8.58A28.66,28.66,0,0,0,93.67,119.12Z"/><path class="cls-1" d="M212.64,149.41V97l-23.89,40.88H186L162.12,97v52.4h-4.35V88.82h4.35l25.26,43.35,25.26-43.35H217v60.59Z"/><path class="cls-1" d="M273.24,145.49v3.92H232.87V88.82h39.6v3.92H237.22v23.82H268v3.75H237.22v25.18Z"/><path class="cls-1" d="M256.19,25.1A782.79,782.79,0,0,0,28.78,30.9a781.22,781.22,0,0,1,227-2.57q-4,2.63-7.87,5.28,12.71-2.5,25.64-4.59-11.83-5.5-23.94-10.65Q252.91,21.73,256.19,25.1Z"/><path class="cls-1" d="M45.8,174.9a782.86,782.86,0,0,0,227.42-5.8,781.29,781.29,0,0,1-227,2.57q4-2.62,7.87-5.28Q41.41,168.9,28.48,171q11.83,5.51,23.93,10.65Q49.08,178.27,45.8,174.9Z"/></svg>