<?xml version="1.0" encoding="utf-8"?>
<!-- Generator: Adobe Illustrator 22.1.0, SVG Export Plug-In . SVG Version: 6.00 Build 0)  -->
<svg version="1.1" id="Layer_1" xmlns="http://www.w3.org/2000/svg" xmlns:xlink="http://www.w3.org/1999/xlink" x="0px" y="0px"
	 viewBox="0 0 50 50" style="enable-background:new 0 0 50 50;" xml:space="preserve">
<style type="text/css">
	.st0{fill-rule:evenodd;clip-rule:evenodd;fill:#FFFFFF;}
	.st1{fill:none;stroke:#FFFFFF;stroke-miterlimit:10;}
	.st2{fill:#FFFFFF;}
</style>
<g>
	<g>
		<g>
			<path class="st1" d="M5.5,25C5.5,14.3,14.3,5.5,25,5.5c10.7,0,19.5,8.7,19.5,19.5c0,10.7-8.7,19.5-19.5,19.5
				C14.3,44.5,5.5,35.7,5.5,25z"/>
		</g>
	</g>
	<path class="st0" d="M21.2,30.9c-2.5-0.1-4.1-1.9-4.5-3.3c0.7,0.1,1.4,0.1,2.1-0.1c0,0,0,0,0.1,0c-1.4-0.3-2.4-1-3.1-2.2
		c-0.5-0.8-0.7-1.6-0.7-2.6c0.7,0.4,1.4,0.6,2.1,0.6c-1-0.7-1.7-1.7-2-2.9c-0.3-1.2-0.1-2.4,0.5-3.5c2.6,3.1,5.9,4.8,9.9,5
		c0-0.2-0.1-0.4-0.1-0.5c-0.1-1.1,0.1-2.2,0.7-3.1c0.8-1.2,1.9-1.9,3.3-2.2c1.6-0.3,3,0.2,4.2,1.3c0.1,0.1,0.1,0.1,0.3,0.1
		c1-0.2,1.9-0.6,2.8-1.1c0,0,0,0,0.1,0c0,0,0,0,0,0c-0.4,1.1-1.1,2-2.1,2.6c0.9-0.1,1.8-0.4,2.7-0.7c0,0,0,0,0,0
		c-0.2,0.2-0.4,0.5-0.6,0.7c-0.5,0.6-1.1,1.2-1.7,1.7c-0.1,0-0.1,0.1-0.1,0.2c0,0.7,0,1.4-0.1,2.1c-0.2,1.5-0.6,2.9-1.2,4.3
		c-0.7,1.4-1.5,2.7-2.6,3.8c-1.8,1.9-4,3.1-6.6,3.7c-0.9,0.2-1.8,0.3-2.7,0.3c-2.8,0.1-5.3-0.6-7.7-2.1c0,0-0.1,0-0.1-0.1
		c1.7,0.2,3.3,0,4.8-0.7C19.8,31.9,20.5,31.4,21.2,30.9z"/>
</g>
</svg>
